<svg xmlns="http://www.w3.org/2000/svg" width="100" height="100" viewBox="0 0 100 100"><defs><style>.a{fill:#1d1d1b;}.b{fill:none;stroke:#1d1d1b;stroke-miterlimit:10;stroke-width:2px;stroke-dasharray:7.5668 7.5668;}</style></defs><path class="a" d="M64.1862,83.6811l.3478-1.7044,2.712-.3773,9.8094-18.6409h3.0918l3.06,18.7359,2.4912.2823-.3158,1.7044H75.6051l.3465-1.7044,2.5862-.2515-.63-4.2893H71.1887l-2.1125,4.1327,2.5861.4081-.3478,1.7044Zm7.9176-8.0754h5.551l-1.23-8.4528Z"/><path class="a" d="M22.2694,30.3964l.3479-1.7032,2.7119-.3786L35.1386,9.6738h3.0919L41.29,28.41l2.4912.2836-.3158,1.7032H33.6883l.3465-1.7032L36.621,28.44l-.63-4.2893H29.272l-2.1126,4.1314,2.5862.4107-.3479,1.7032Zm7.9177-8.0742H35.738l-1.23-8.4541Z"/><path class="a" d="M49.6172,30.87a3.9282,3.9282,0,0,1-2.6811-.883,3.4166,3.4166,0,0,1-1.01-2.7133,13.1556,13.1556,0,0,1,.285-2.6028q.2829-1.4016.5672-2.7594l2.2076-10.8824-2.1768-.3465.19-1.1988,6.6239-1.766.4736.3786L51.92,18.0945a11.16,11.16,0,0,1,2.8224-2.5066,5.6327,5.6327,0,0,1,2.9185-.93,3.0332,3.0332,0,0,1,2.3808,1.0088,5.0581,5.0581,0,0,1,.8984,3.3755,10.45,10.45,0,0,1-.9767,4.4,13.1717,13.1717,0,0,1-2.6336,3.8,13.4359,13.4359,0,0,1-3.6591,2.65A9.1735,9.1735,0,0,1,49.6172,30.87Zm.63-3.88a1.7334,1.7334,0,0,0,.3786,1.1667,1.4132,1.4132,0,0,0,1.1359.4415,2.5606,2.5606,0,0,0,1.3874-.4415,5.3628,5.3628,0,0,0,1.42-1.4824,8.1618,8.1618,0,0,0,.93-1.7507,14.7493,14.7493,0,0,0,.6943-2.24,10.0992,10.0992,0,0,0,.2683-2.2229A3.3867,3.3867,0,0,0,56.02,18.536a1.4207,1.4207,0,0,0-1.2309-.63,2.9359,2.9359,0,0,0-1.4823.4415A9.2746,9.2746,0,0,0,51.73,19.5461l-.82,3.722q-.2831,1.3553-.4723,2.24A7.2472,7.2472,0,0,0,50.2474,26.99Z"/><path class="a" d="M67.909,30.87a5.1762,5.1762,0,0,1-3.9274-1.61,6.103,6.103,0,0,1-1.53-4.3842,10.8955,10.8955,0,0,1,.6931-3.8632,10.5961,10.5961,0,0,1,1.956-3.28A9.3236,9.3236,0,0,1,68.05,15.4775a8.2293,8.2293,0,0,1,3.645-.82,4.9982,4.9982,0,0,1,2.8852.788,3.7429,3.7429,0,0,1,1.53,2.1768,2.0143,2.0143,0,0,1-.6622,1.467,2.1943,2.1943,0,0,1-1.5453.5827,1.724,1.724,0,0,1-1.2937-.52,5.8857,5.8857,0,0,1-.883-1.1834l-.978-1.64a7.4454,7.4454,0,0,0-2.1126,2.0663,9.0908,9.0908,0,0,0-1.2629,2.6966,10.568,10.568,0,0,0-.4107,2.87,3.7029,3.7029,0,0,0,.9164,2.7762,3.3447,3.3447,0,0,0,2.4283.883,4.1759,4.1759,0,0,0,2.0817-.6148,7.1891,7.1891,0,0,0,1.956-1.6877l.8522.6314A10.3811,10.3811,0,0,1,73.4458,28.33a9.3441,9.3441,0,0,1-2.4925,1.83A6.6654,6.6654,0,0,1,67.909,30.87Z"/><path class="a" d="M83.5781,38.6445H14.8018A8.4879,8.4879,0,0,1,6.3232,30.166V9.9043a8.4879,8.4879,0,0,1,8.4786-8.4785H83.5781a8.4881,8.4881,0,0,1,8.4785,8.4785V30.166A8.4881,8.4881,0,0,1,83.5781,38.6445ZM14.8018,2.4258A7.4872,7.4872,0,0,0,7.3232,9.9043V30.166a7.4871,7.4871,0,0,0,7.4786,7.4785H83.5781a7.4868,7.4868,0,0,0,7.4785-7.4785V9.9043a7.4869,7.4869,0,0,0-7.4785-7.4785Z"/><path class="b" d="M95.3841,75.6057A19.2739,19.2739,0,0,1,76.11,94.88c-25.5664-1.0152-25.5591-37.5364,0-38.5477A19.2738,19.2738,0,0,1,95.3841,75.6057Z"/><path class="a" d="M18.4625,40.7521a.7609.7609,0,0,1,1.3179.0128L25.2868,50.52l5.5064,9.7548a.7609.7609,0,0,1-.67,1.1349l-11.2011-.1087L7.721,61.1919a.7609.7609,0,0,1-.6479-1.1477l5.6947-9.6461Z"/><path class="a" d="M47.5726,86.6128c-10.9769.4025-19.6682-2.26-25.8724-7.9333a28.7214,28.7214,0,0,1-8.8387-17.9217,1.738,1.738,0,0,1,1.7391-1.9213l8.9209.0216L18.13,58.845l3.8087-.02a1.734,1.734,0,0,1,1.7309,1.4812A17.7617,17.7617,0,0,0,29.0746,70.81c4.2549,3.8268,10.7625,5.4921,19.3691,4.9644a1.7516,1.7516,0,0,1,1.869,1.5738l.6692,7.2744a1.736,1.736,0,0,1-1.6,1.8978Q48.467,86.58,47.5726,86.6128Z"/></svg>